<svg width="106" height="57" viewBox="0 0 106 57" fill="none" xmlns="http://www.w3.org/2000/svg">
<path d="M35.2273 20.0909H40.2727L52.1364 49.0682H52.5455L64.4091 20.0909H69.4545V55H65.5V28.4773H65.1591L54.25 55H50.4318L39.5227 28.4773H39.1818V55H35.2273V20.0909Z" fill="#1B1B1B"/>
<path d="M40.7159 32.0909C40.6307 31.3712 40.285 30.8125 39.679 30.4148C39.0729 30.017 38.3295 29.8182 37.4489 29.8182C36.8049 29.8182 36.2415 29.9223 35.7585 30.1307C35.2803 30.339 34.9063 30.6255 34.6364 30.9901C34.3712 31.3546 34.2386 31.7689 34.2386 32.233C34.2386 32.6212 34.331 32.955 34.5156 33.2344C34.705 33.509 34.9465 33.7386 35.2401 33.9233C35.5336 34.1032 35.8414 34.2524 36.1634 34.3707C36.4853 34.4844 36.7812 34.5767 37.0511 34.6477L38.5284 35.0455C38.9072 35.1449 39.3286 35.2822 39.7926 35.4574C40.2614 35.6326 40.7088 35.8717 41.1349 36.1747C41.5658 36.473 41.9209 36.8565 42.2003 37.3253C42.4796 37.794 42.6193 38.3693 42.6193 39.0511C42.6193 39.8371 42.4134 40.5473 42.0014 41.1818C41.5942 41.8163 40.9976 42.3205 40.2116 42.6946C39.4304 43.0687 38.4811 43.2557 37.3636 43.2557C36.322 43.2557 35.42 43.0876 34.6577 42.7514C33.9001 42.4152 33.3035 41.9465 32.8679 41.3452C32.437 40.7438 32.1932 40.0455 32.1364 39.25H33.9545C34.0019 39.7992 34.1866 40.2538 34.5085 40.6136C34.8352 40.9687 35.2472 41.2339 35.7443 41.4091C36.2462 41.5795 36.786 41.6648 37.3636 41.6648C38.036 41.6648 38.6397 41.5559 39.1747 41.3381C39.7098 41.1155 40.1335 40.8078 40.446 40.4148C40.7585 40.017 40.9148 39.553 40.9148 39.0227C40.9148 38.5398 40.7798 38.1468 40.5099 37.8438C40.2401 37.5407 39.8849 37.2945 39.4446 37.1051C39.0043 36.9157 38.5284 36.75 38.017 36.608L36.2273 36.0966C35.0909 35.7699 34.1913 35.3035 33.5284 34.6974C32.8655 34.0914 32.5341 33.2983 32.5341 32.3182C32.5341 31.5038 32.7543 30.7936 33.1946 30.1875C33.6397 29.5767 34.2363 29.1032 34.9844 28.767C35.7372 28.4261 36.5777 28.2557 37.5057 28.2557C38.4432 28.2557 39.2765 28.4238 40.0057 28.7599C40.7348 29.0914 41.3125 29.5459 41.7386 30.1236C42.1695 30.7012 42.3968 31.357 42.4205 32.0909H40.7159ZM50.0039 43H45.5153V28.4545H50.2028C51.6138 28.4545 52.8211 28.7457 53.8249 29.3281C54.8287 29.9058 55.5981 30.7367 56.1332 31.821C56.6682 32.9006 56.9357 34.1932 56.9357 35.6989C56.9357 37.214 56.6658 38.5185 56.1261 39.6122C55.5863 40.7012 54.8003 41.5393 53.7681 42.1264C52.7359 42.7088 51.4812 43 50.0039 43ZM47.2766 41.4375H49.8903C51.0929 41.4375 52.0896 41.2055 52.8803 40.7415C53.671 40.2775 54.2605 39.617 54.6488 38.7599C55.0371 37.9029 55.2312 36.8826 55.2312 35.6989C55.2312 34.5246 55.0394 33.5137 54.6559 32.6662C54.2724 31.8139 53.6995 31.1605 52.9371 30.706C52.1748 30.2467 51.2255 30.017 50.0891 30.017H47.2766V41.4375ZM59.8903 28.4545H61.9925L66.9357 40.5284H67.1062L72.0494 28.4545H74.1516V43H72.5039V31.9489H72.3619L67.8164 43H66.2255L61.68 31.9489H61.538V43H59.8903V28.4545Z" fill="#555555"/>
<path d="M38.7159 35.0909C38.6307 34.3712 38.285 33.8125 37.679 33.4148C37.0729 33.017 36.3295 32.8182 35.4489 32.8182C34.8049 32.8182 34.2415 32.9223 33.7585 33.1307C33.2803 33.339 32.9063 33.6255 32.6364 33.9901C32.3712 34.3546 32.2386 34.7689 32.2386 35.233C32.2386 35.6212 32.331 35.955 32.5156 36.2344C32.705 36.509 32.9465 36.7386 33.2401 36.9233C33.5336 37.1032 33.8414 37.2524 34.1634 37.3707C34.4853 37.4844 34.7812 37.5767 35.0511 37.6477L36.5284 38.0455C36.9072 38.1449 37.3286 38.2822 37.7926 38.4574C38.2614 38.6326 38.7088 38.8717 39.1349 39.1747C39.5658 39.473 39.9209 39.8565 40.2003 40.3253C40.4796 40.794 40.6193 41.3693 40.6193 42.0511C40.6193 42.8371 40.4134 43.5473 40.0014 44.1818C39.5942 44.8163 38.9976 45.3205 38.2116 45.6946C37.4304 46.0687 36.4811 46.2557 35.3636 46.2557C34.322 46.2557 33.42 46.0876 32.6577 45.7514C31.9001 45.4152 31.3035 44.9465 30.8679 44.3452C30.437 43.7438 30.1932 43.0455 30.1364 42.25H31.9545C32.0019 42.7992 32.1866 43.2538 32.5085 43.6136C32.8352 43.9687 33.2472 44.2339 33.7443 44.4091C34.2462 44.5795 34.786 44.6648 35.3636 44.6648C36.036 44.6648 36.6397 44.5559 37.1747 44.3381C37.7098 44.1155 38.1335 43.8078 38.446 43.4148C38.7585 43.017 38.9148 42.553 38.9148 42.0227C38.9148 41.5398 38.7798 41.1468 38.5099 40.8438C38.2401 40.5407 37.8849 40.2945 37.4446 40.1051C37.0043 39.9157 36.5284 39.75 36.017 39.608L34.2273 39.0966C33.0909 38.7699 32.1913 38.3035 31.5284 37.6974C30.8655 37.0914 30.5341 36.2983 30.5341 35.3182C30.5341 34.5038 30.7543 33.7936 31.1946 33.1875C31.6397 32.5767 32.2363 32.1032 32.9844 31.767C33.7372 31.4261 34.5777 31.2557 35.5057 31.2557C36.4432 31.2557 37.2765 31.4238 38.0057 31.7599C38.7348 32.0914 39.3125 32.5459 39.7386 33.1236C40.1695 33.7012 40.3968 34.357 40.4205 35.0909H38.7159ZM48.0039 46H43.5153V31.4545H48.2028C49.6138 31.4545 50.8211 31.7457 51.8249 32.3281C52.8287 32.9058 53.5981 33.7367 54.1332 34.821C54.6682 35.9006 54.9357 37.1932 54.9357 38.6989C54.9357 40.214 54.6658 41.5185 54.1261 42.6122C53.5863 43.7012 52.8003 44.5393 51.7681 45.1264C50.7359 45.7088 49.4812 46 48.0039 46ZM45.2766 44.4375H47.8903C49.0929 44.4375 50.0896 44.2055 50.8803 43.7415C51.671 43.2775 52.2605 42.617 52.6488 41.7599C53.0371 40.9029 53.2312 39.8826 53.2312 38.6989C53.2312 37.5246 53.0394 36.5137 52.6559 35.6662C52.2724 34.8139 51.6995 34.1605 50.9371 33.706C50.1748 33.2467 49.2255 33.017 48.0891 33.017H45.2766V44.4375ZM57.8903 31.4545H59.9925L64.9357 43.5284H65.1062L70.0494 31.4545H72.1516V46H70.5039V34.9489H70.3619L65.8164 46H64.2255L59.68 34.9489H59.538V46H57.8903V31.4545Z" fill="white"/>
<path d="M52 1L5 56" stroke="white" stroke-linecap="round"/>
<path d="M100 56L5 56" stroke="white" stroke-linecap="round"/>
<path d="M52 1L100 56" stroke="white" stroke-linecap="round"/>
</svg>
